<?xml version="1.0" encoding="utf-8"?>
<!-- Generator: Adobe Illustrator 23.0.1, SVG Export Plug-In . SVG Version: 6.00 Build 0)  -->
<svg version="1.1" id="Layer_1" xmlns="http://www.w3.org/2000/svg" xmlns:xlink="http://www.w3.org/1999/xlink" x="0px" y="0px"
	 viewBox="0 0 1920 1080" style="enable-background:new 0 0 1920 1080;" xml:space="preserve">
<style type="text/css">
	.st0{stroke:#FBFFD5;stroke-width:40;stroke-miterlimit:10;}
	.st1{fill:none;stroke:#000000;stroke-miterlimit:10;}
</style>
<line class="st0" x1="327.11" y1="787.18" x2="1516.5" y2="787.18"/>
<path class="st1" d="M332.75,768.57c3.58-45.99,7.15-91.99,10.73-137.98c4.66-59.88,9.1-121.65-9.89-178.63"/>
<path class="st1" d="M332.77,453.74c394.56,25.97,790.64,28.78,1185.53,8.41c-2.38,102.08-4.76,204.16-7.14,306.24"/>
<path class="st1" d="M371.41,768.26c15.71-103.08,16.97-208.34,3.73-311.76"/>
<path class="st1" d="M1478.24,768.4c-0.68-101.52-1.36-203.04-2.04-304.56"/>
<path class="st1" d="M378.36,495.7c378.28-0.04,756.57-0.09,1134.85-0.13"/>
<path class="st1" d="M384.54,615.09c400.03-16.72,800.05-33.44,1200.08-50.16c-24.8,34.89-67.96,55.9-110.72,53.89"/>
<path class="st1" d="M342.36,719.96c273.35-9.25,546.69-18.5,820.04-27.75c117.67-3.98,235.97-7.94,352.7,7.39"/>
</svg>
